<mxfile host="app.diagrams.net" modified="2023-04-02T13:46:47.371Z" agent="Mozilla/5.0 (Macintosh; Intel Mac OS X 10_15_7) AppleWebKit/537.36 (KHTML, like Gecko) Chrome/111.0.0.0 Safari/537.36" version="21.1.2" etag="T9U1S2JX6vvgiHqNKRaj" type="github">
  <diagram name="Page-1" id="fGIO3DobKfDEoUGpft34">
    <mxGraphModel>
      <root>
        <mxCell id="0" />
        <mxCell id="1" parent="0" />
      </root>
    </mxGraphModel>
  </diagram>
</mxfile>
